<mxfile host="app.diagrams.net" modified="2024-06-29T18:21:26.467Z" agent="Mozilla/5.0 (Windows NT 10.0; Win64; x64) AppleWebKit/537.36 (KHTML, like Gecko) Chrome/126.0.0.0 Safari/537.36" etag="omC2I577mIgOlzMafzx8" version="24.5.3" type="device">
  <diagram name="PÃ¡gina-1" id="I5DmeljC37sXBwTFhTp8">
    <mxGraphModel dx="2899" dy="1150" grid="1" gridSize="10" guides="1" tooltips="1" connect="1" arrows="1" fold="1" page="1" pageScale="1" pageWidth="827" pageHeight="1169" math="0" shadow="0">
      <root>
        <mxCell id="0" />
        <mxCell id="1" parent="0" />
        <mxCell id="dHAf7h-lJzJ0TwoY8Go8-3" style="edgeStyle=orthogonalEdgeStyle;rounded=0;orthogonalLoop=1;jettySize=auto;html=1;entryX=0;entryY=0.5;entryDx=0;entryDy=0;" edge="1" parent="1" source="dHAf7h-lJzJ0TwoY8Go8-1" target="dHAf7h-lJzJ0TwoY8Go8-2">
          <mxGeometry relative="1" as="geometry" />
        </mxCell>
        <mxCell id="dHAf7h-lJzJ0TwoY8Go8-1" value="Inicio" style="rounded=0;whiteSpace=wrap;html=1;" vertex="1" parent="1">
          <mxGeometry x="110" y="90" width="120" height="60" as="geometry" />
        </mxCell>
        <mxCell id="dHAf7h-lJzJ0TwoY8Go8-2" value="D1" style="ellipse;whiteSpace=wrap;html=1;fillColor=#ffe6cc;strokeColor=#d79b00;" vertex="1" parent="1">
          <mxGeometry x="390" y="80" width="120" height="80" as="geometry" />
        </mxCell>
        <mxCell id="dHAf7h-lJzJ0TwoY8Go8-9" style="edgeStyle=orthogonalEdgeStyle;rounded=0;orthogonalLoop=1;jettySize=auto;html=1;entryX=0.5;entryY=0;entryDx=0;entryDy=0;" edge="1" parent="1" source="dHAf7h-lJzJ0TwoY8Go8-5" target="dHAf7h-lJzJ0TwoY8Go8-8">
          <mxGeometry relative="1" as="geometry" />
        </mxCell>
        <mxCell id="dHAf7h-lJzJ0TwoY8Go8-5" value="UE 1" style="rounded=0;whiteSpace=wrap;html=1;fillColor=#dae8fc;strokeColor=#6c8ebf;" vertex="1" parent="1">
          <mxGeometry x="395" y="160" width="110" height="30" as="geometry" />
        </mxCell>
        <mxCell id="dHAf7h-lJzJ0TwoY8Go8-8" value="D2" style="ellipse;whiteSpace=wrap;html=1;fillColor=#ffe6cc;strokeColor=#d79b00;" vertex="1" parent="1">
          <mxGeometry x="390" y="330" width="120" height="80" as="geometry" />
        </mxCell>
        <mxCell id="dHAf7h-lJzJ0TwoY8Go8-27" style="edgeStyle=orthogonalEdgeStyle;rounded=0;orthogonalLoop=1;jettySize=auto;html=1;entryX=0.5;entryY=0;entryDx=0;entryDy=0;" edge="1" parent="1" source="dHAf7h-lJzJ0TwoY8Go8-11" target="dHAf7h-lJzJ0TwoY8Go8-22">
          <mxGeometry relative="1" as="geometry" />
        </mxCell>
        <mxCell id="dHAf7h-lJzJ0TwoY8Go8-11" value="UE 2" style="rounded=0;whiteSpace=wrap;html=1;fillColor=#dae8fc;strokeColor=#6c8ebf;" vertex="1" parent="1">
          <mxGeometry x="395" y="410" width="110" height="30" as="geometry" />
        </mxCell>
        <mxCell id="dHAf7h-lJzJ0TwoY8Go8-28" style="edgeStyle=orthogonalEdgeStyle;rounded=0;orthogonalLoop=1;jettySize=auto;html=1;entryX=0.5;entryY=0;entryDx=0;entryDy=0;" edge="1" parent="1" source="dHAf7h-lJzJ0TwoY8Go8-12" target="dHAf7h-lJzJ0TwoY8Go8-21">
          <mxGeometry relative="1" as="geometry" />
        </mxCell>
        <mxCell id="dHAf7h-lJzJ0TwoY8Go8-12" value="UE 3" style="rounded=0;whiteSpace=wrap;html=1;fillColor=#dae8fc;strokeColor=#6c8ebf;" vertex="1" parent="1">
          <mxGeometry x="395" y="440" width="110" height="30" as="geometry" />
        </mxCell>
        <mxCell id="dHAf7h-lJzJ0TwoY8Go8-29" style="edgeStyle=orthogonalEdgeStyle;rounded=0;orthogonalLoop=1;jettySize=auto;html=1;entryX=0.5;entryY=0;entryDx=0;entryDy=0;" edge="1" parent="1" source="dHAf7h-lJzJ0TwoY8Go8-13" target="dHAf7h-lJzJ0TwoY8Go8-20">
          <mxGeometry relative="1" as="geometry" />
        </mxCell>
        <mxCell id="dHAf7h-lJzJ0TwoY8Go8-13" value="UE 4" style="rounded=0;whiteSpace=wrap;html=1;fillColor=#dae8fc;strokeColor=#6c8ebf;" vertex="1" parent="1">
          <mxGeometry x="395" y="470" width="110" height="30" as="geometry" />
        </mxCell>
        <mxCell id="dHAf7h-lJzJ0TwoY8Go8-31" style="edgeStyle=orthogonalEdgeStyle;rounded=0;orthogonalLoop=1;jettySize=auto;html=1;entryX=0.5;entryY=0;entryDx=0;entryDy=0;" edge="1" parent="1" source="dHAf7h-lJzJ0TwoY8Go8-14" target="dHAf7h-lJzJ0TwoY8Go8-25">
          <mxGeometry relative="1" as="geometry" />
        </mxCell>
        <mxCell id="dHAf7h-lJzJ0TwoY8Go8-14" value="UE 5" style="rounded=0;whiteSpace=wrap;html=1;fillColor=#dae8fc;strokeColor=#6c8ebf;" vertex="1" parent="1">
          <mxGeometry x="395" y="500" width="110" height="30" as="geometry" />
        </mxCell>
        <mxCell id="dHAf7h-lJzJ0TwoY8Go8-33" style="edgeStyle=orthogonalEdgeStyle;rounded=0;orthogonalLoop=1;jettySize=auto;html=1;entryX=0.5;entryY=0;entryDx=0;entryDy=0;" edge="1" parent="1" source="dHAf7h-lJzJ0TwoY8Go8-15" target="dHAf7h-lJzJ0TwoY8Go8-24">
          <mxGeometry relative="1" as="geometry" />
        </mxCell>
        <mxCell id="dHAf7h-lJzJ0TwoY8Go8-15" value="UE 6" style="rounded=0;whiteSpace=wrap;html=1;fillColor=#dae8fc;strokeColor=#6c8ebf;" vertex="1" parent="1">
          <mxGeometry x="395" y="530" width="110" height="30" as="geometry" />
        </mxCell>
        <mxCell id="dHAf7h-lJzJ0TwoY8Go8-34" style="edgeStyle=orthogonalEdgeStyle;rounded=0;orthogonalLoop=1;jettySize=auto;html=1;entryX=0.5;entryY=0;entryDx=0;entryDy=0;" edge="1" parent="1" source="dHAf7h-lJzJ0TwoY8Go8-17" target="dHAf7h-lJzJ0TwoY8Go8-23">
          <mxGeometry relative="1" as="geometry" />
        </mxCell>
        <mxCell id="dHAf7h-lJzJ0TwoY8Go8-17" value="UE 7" style="rounded=0;whiteSpace=wrap;html=1;fillColor=#dae8fc;strokeColor=#6c8ebf;" vertex="1" parent="1">
          <mxGeometry x="395" y="560" width="110" height="30" as="geometry" />
        </mxCell>
        <mxCell id="dHAf7h-lJzJ0TwoY8Go8-26" style="edgeStyle=orthogonalEdgeStyle;rounded=0;orthogonalLoop=1;jettySize=auto;html=1;entryX=0.5;entryY=0;entryDx=0;entryDy=0;" edge="1" parent="1" source="dHAf7h-lJzJ0TwoY8Go8-18" target="dHAf7h-lJzJ0TwoY8Go8-19">
          <mxGeometry relative="1" as="geometry" />
        </mxCell>
        <mxCell id="dHAf7h-lJzJ0TwoY8Go8-18" value="UE 8" style="rounded=0;whiteSpace=wrap;html=1;fillColor=#dae8fc;strokeColor=#6c8ebf;" vertex="1" parent="1">
          <mxGeometry x="395" y="590" width="110" height="30" as="geometry" />
        </mxCell>
        <mxCell id="dHAf7h-lJzJ0TwoY8Go8-19" value="D6" style="ellipse;whiteSpace=wrap;html=1;fillColor=#ffe6cc;strokeColor=#d79b00;" vertex="1" parent="1">
          <mxGeometry x="390" y="740" width="120" height="80" as="geometry" />
        </mxCell>
        <mxCell id="dHAf7h-lJzJ0TwoY8Go8-20" value="D5" style="ellipse;whiteSpace=wrap;html=1;fillColor=#ffe6cc;strokeColor=#d79b00;" vertex="1" parent="1">
          <mxGeometry x="120" y="740" width="120" height="80" as="geometry" />
        </mxCell>
        <mxCell id="dHAf7h-lJzJ0TwoY8Go8-21" value="D4" style="ellipse;whiteSpace=wrap;html=1;fillColor=#ffe6cc;strokeColor=#d79b00;" vertex="1" parent="1">
          <mxGeometry x="-50" y="740" width="120" height="80" as="geometry" />
        </mxCell>
        <mxCell id="dHAf7h-lJzJ0TwoY8Go8-22" value="D3" style="ellipse;whiteSpace=wrap;html=1;fillColor=#ffe6cc;strokeColor=#d79b00;" vertex="1" parent="1">
          <mxGeometry x="-240" y="740" width="120" height="80" as="geometry" />
        </mxCell>
        <mxCell id="dHAf7h-lJzJ0TwoY8Go8-23" value="D7" style="ellipse;whiteSpace=wrap;html=1;fillColor=#ffe6cc;strokeColor=#d79b00;" vertex="1" parent="1">
          <mxGeometry x="610" y="730" width="120" height="80" as="geometry" />
        </mxCell>
        <mxCell id="dHAf7h-lJzJ0TwoY8Go8-24" value="D8" style="ellipse;whiteSpace=wrap;html=1;fillColor=#ffe6cc;strokeColor=#d79b00;" vertex="1" parent="1">
          <mxGeometry x="880" y="730" width="120" height="80" as="geometry" />
        </mxCell>
        <mxCell id="dHAf7h-lJzJ0TwoY8Go8-25" value="D9" style="ellipse;whiteSpace=wrap;html=1;fillColor=#ffe6cc;strokeColor=#d79b00;" vertex="1" parent="1">
          <mxGeometry x="1110" y="730" width="120" height="80" as="geometry" />
        </mxCell>
        <mxCell id="dHAf7h-lJzJ0TwoY8Go8-63" style="edgeStyle=orthogonalEdgeStyle;rounded=0;orthogonalLoop=1;jettySize=auto;html=1;entryX=0.5;entryY=0;entryDx=0;entryDy=0;" edge="1" parent="1" source="dHAf7h-lJzJ0TwoY8Go8-41" target="dHAf7h-lJzJ0TwoY8Go8-61">
          <mxGeometry relative="1" as="geometry" />
        </mxCell>
        <mxCell id="dHAf7h-lJzJ0TwoY8Go8-41" value="UE 9" style="rounded=0;whiteSpace=wrap;html=1;fillColor=#dae8fc;strokeColor=#6c8ebf;" vertex="1" parent="1">
          <mxGeometry x="-235" y="820" width="110" height="30" as="geometry" />
        </mxCell>
        <mxCell id="dHAf7h-lJzJ0TwoY8Go8-64" style="edgeStyle=orthogonalEdgeStyle;rounded=0;orthogonalLoop=1;jettySize=auto;html=1;entryX=0.5;entryY=0;entryDx=0;entryDy=0;" edge="1" parent="1" source="dHAf7h-lJzJ0TwoY8Go8-42" target="dHAf7h-lJzJ0TwoY8Go8-62">
          <mxGeometry relative="1" as="geometry" />
        </mxCell>
        <mxCell id="dHAf7h-lJzJ0TwoY8Go8-42" value="UE 10" style="rounded=0;whiteSpace=wrap;html=1;fillColor=#dae8fc;strokeColor=#6c8ebf;" vertex="1" parent="1">
          <mxGeometry x="-235" y="850" width="110" height="30" as="geometry" />
        </mxCell>
        <mxCell id="dHAf7h-lJzJ0TwoY8Go8-67" style="edgeStyle=orthogonalEdgeStyle;rounded=0;orthogonalLoop=1;jettySize=auto;html=1;" edge="1" parent="1" source="dHAf7h-lJzJ0TwoY8Go8-49" target="dHAf7h-lJzJ0TwoY8Go8-65">
          <mxGeometry relative="1" as="geometry" />
        </mxCell>
        <mxCell id="dHAf7h-lJzJ0TwoY8Go8-49" value="UE 9" style="rounded=0;whiteSpace=wrap;html=1;fillColor=#dae8fc;strokeColor=#6c8ebf;" vertex="1" parent="1">
          <mxGeometry x="-45" y="820" width="110" height="30" as="geometry" />
        </mxCell>
        <mxCell id="dHAf7h-lJzJ0TwoY8Go8-68" style="edgeStyle=orthogonalEdgeStyle;rounded=0;orthogonalLoop=1;jettySize=auto;html=1;entryX=0.5;entryY=0;entryDx=0;entryDy=0;" edge="1" parent="1" source="dHAf7h-lJzJ0TwoY8Go8-50" target="dHAf7h-lJzJ0TwoY8Go8-66">
          <mxGeometry relative="1" as="geometry" />
        </mxCell>
        <mxCell id="dHAf7h-lJzJ0TwoY8Go8-50" value="UE 10" style="rounded=0;whiteSpace=wrap;html=1;fillColor=#dae8fc;strokeColor=#6c8ebf;" vertex="1" parent="1">
          <mxGeometry x="-45" y="850" width="110" height="30" as="geometry" />
        </mxCell>
        <mxCell id="dHAf7h-lJzJ0TwoY8Go8-71" style="edgeStyle=orthogonalEdgeStyle;rounded=0;orthogonalLoop=1;jettySize=auto;html=1;" edge="1" parent="1" source="dHAf7h-lJzJ0TwoY8Go8-51" target="dHAf7h-lJzJ0TwoY8Go8-69">
          <mxGeometry relative="1" as="geometry" />
        </mxCell>
        <mxCell id="dHAf7h-lJzJ0TwoY8Go8-51" value="UE 9" style="rounded=0;whiteSpace=wrap;html=1;fillColor=#dae8fc;strokeColor=#6c8ebf;" vertex="1" parent="1">
          <mxGeometry x="125" y="820" width="110" height="30" as="geometry" />
        </mxCell>
        <mxCell id="dHAf7h-lJzJ0TwoY8Go8-72" style="edgeStyle=orthogonalEdgeStyle;rounded=0;orthogonalLoop=1;jettySize=auto;html=1;entryX=0.5;entryY=0;entryDx=0;entryDy=0;" edge="1" parent="1" source="dHAf7h-lJzJ0TwoY8Go8-52" target="dHAf7h-lJzJ0TwoY8Go8-70">
          <mxGeometry relative="1" as="geometry" />
        </mxCell>
        <mxCell id="dHAf7h-lJzJ0TwoY8Go8-52" value="UE 10" style="rounded=0;whiteSpace=wrap;html=1;fillColor=#dae8fc;strokeColor=#6c8ebf;" vertex="1" parent="1">
          <mxGeometry x="125" y="850" width="110" height="30" as="geometry" />
        </mxCell>
        <mxCell id="dHAf7h-lJzJ0TwoY8Go8-75" style="edgeStyle=orthogonalEdgeStyle;rounded=0;orthogonalLoop=1;jettySize=auto;html=1;entryX=0.5;entryY=0;entryDx=0;entryDy=0;" edge="1" parent="1" source="dHAf7h-lJzJ0TwoY8Go8-53" target="dHAf7h-lJzJ0TwoY8Go8-73">
          <mxGeometry relative="1" as="geometry">
            <Array as="points">
              <mxPoint x="380" y="840" />
            </Array>
          </mxGeometry>
        </mxCell>
        <mxCell id="dHAf7h-lJzJ0TwoY8Go8-53" value="UE 9" style="rounded=0;whiteSpace=wrap;html=1;fillColor=#dae8fc;strokeColor=#6c8ebf;" vertex="1" parent="1">
          <mxGeometry x="395" y="820" width="110" height="30" as="geometry" />
        </mxCell>
        <mxCell id="dHAf7h-lJzJ0TwoY8Go8-76" style="edgeStyle=orthogonalEdgeStyle;rounded=0;orthogonalLoop=1;jettySize=auto;html=1;entryX=0.5;entryY=0;entryDx=0;entryDy=0;" edge="1" parent="1" source="dHAf7h-lJzJ0TwoY8Go8-54" target="dHAf7h-lJzJ0TwoY8Go8-74">
          <mxGeometry relative="1" as="geometry" />
        </mxCell>
        <mxCell id="dHAf7h-lJzJ0TwoY8Go8-54" value="UE 10" style="rounded=0;whiteSpace=wrap;html=1;fillColor=#dae8fc;strokeColor=#6c8ebf;" vertex="1" parent="1">
          <mxGeometry x="395" y="850" width="110" height="30" as="geometry" />
        </mxCell>
        <mxCell id="dHAf7h-lJzJ0TwoY8Go8-79" style="edgeStyle=orthogonalEdgeStyle;rounded=0;orthogonalLoop=1;jettySize=auto;html=1;entryX=0.5;entryY=0;entryDx=0;entryDy=0;" edge="1" parent="1" source="dHAf7h-lJzJ0TwoY8Go8-55" target="dHAf7h-lJzJ0TwoY8Go8-77">
          <mxGeometry relative="1" as="geometry">
            <Array as="points">
              <mxPoint x="585" y="830" />
            </Array>
          </mxGeometry>
        </mxCell>
        <mxCell id="dHAf7h-lJzJ0TwoY8Go8-55" value="UE 9" style="rounded=0;whiteSpace=wrap;html=1;fillColor=#dae8fc;strokeColor=#6c8ebf;" vertex="1" parent="1">
          <mxGeometry x="615" y="810" width="110" height="30" as="geometry" />
        </mxCell>
        <mxCell id="dHAf7h-lJzJ0TwoY8Go8-80" style="edgeStyle=orthogonalEdgeStyle;rounded=0;orthogonalLoop=1;jettySize=auto;html=1;entryX=0.5;entryY=0;entryDx=0;entryDy=0;" edge="1" parent="1" source="dHAf7h-lJzJ0TwoY8Go8-56" target="dHAf7h-lJzJ0TwoY8Go8-78">
          <mxGeometry relative="1" as="geometry" />
        </mxCell>
        <mxCell id="dHAf7h-lJzJ0TwoY8Go8-56" value="UE 10" style="rounded=0;whiteSpace=wrap;html=1;fillColor=#dae8fc;strokeColor=#6c8ebf;" vertex="1" parent="1">
          <mxGeometry x="615" y="840" width="110" height="30" as="geometry" />
        </mxCell>
        <mxCell id="dHAf7h-lJzJ0TwoY8Go8-83" style="edgeStyle=orthogonalEdgeStyle;rounded=0;orthogonalLoop=1;jettySize=auto;html=1;entryX=0.5;entryY=0;entryDx=0;entryDy=0;" edge="1" parent="1" source="dHAf7h-lJzJ0TwoY8Go8-57" target="dHAf7h-lJzJ0TwoY8Go8-81">
          <mxGeometry relative="1" as="geometry">
            <Array as="points">
              <mxPoint x="855" y="830" />
            </Array>
          </mxGeometry>
        </mxCell>
        <mxCell id="dHAf7h-lJzJ0TwoY8Go8-57" value="UE 9" style="rounded=0;whiteSpace=wrap;html=1;fillColor=#dae8fc;strokeColor=#6c8ebf;" vertex="1" parent="1">
          <mxGeometry x="885" y="810" width="110" height="30" as="geometry" />
        </mxCell>
        <mxCell id="dHAf7h-lJzJ0TwoY8Go8-84" style="edgeStyle=orthogonalEdgeStyle;rounded=0;orthogonalLoop=1;jettySize=auto;html=1;" edge="1" parent="1" source="dHAf7h-lJzJ0TwoY8Go8-58" target="dHAf7h-lJzJ0TwoY8Go8-82">
          <mxGeometry relative="1" as="geometry" />
        </mxCell>
        <mxCell id="dHAf7h-lJzJ0TwoY8Go8-58" value="UE 10" style="rounded=0;whiteSpace=wrap;html=1;fillColor=#dae8fc;strokeColor=#6c8ebf;" vertex="1" parent="1">
          <mxGeometry x="885" y="840" width="110" height="30" as="geometry" />
        </mxCell>
        <mxCell id="dHAf7h-lJzJ0TwoY8Go8-87" style="edgeStyle=orthogonalEdgeStyle;rounded=0;orthogonalLoop=1;jettySize=auto;html=1;entryX=0.5;entryY=0;entryDx=0;entryDy=0;" edge="1" parent="1" source="dHAf7h-lJzJ0TwoY8Go8-59" target="dHAf7h-lJzJ0TwoY8Go8-85">
          <mxGeometry relative="1" as="geometry">
            <Array as="points">
              <mxPoint x="1100" y="830" />
            </Array>
          </mxGeometry>
        </mxCell>
        <mxCell id="dHAf7h-lJzJ0TwoY8Go8-59" value="UE 9" style="rounded=0;whiteSpace=wrap;html=1;fillColor=#dae8fc;strokeColor=#6c8ebf;" vertex="1" parent="1">
          <mxGeometry x="1115" y="810" width="110" height="30" as="geometry" />
        </mxCell>
        <mxCell id="dHAf7h-lJzJ0TwoY8Go8-88" style="edgeStyle=orthogonalEdgeStyle;rounded=0;orthogonalLoop=1;jettySize=auto;html=1;entryX=0.5;entryY=0;entryDx=0;entryDy=0;" edge="1" parent="1" source="dHAf7h-lJzJ0TwoY8Go8-60" target="dHAf7h-lJzJ0TwoY8Go8-86">
          <mxGeometry relative="1" as="geometry">
            <Array as="points">
              <mxPoint x="1270" y="855" />
            </Array>
          </mxGeometry>
        </mxCell>
        <mxCell id="dHAf7h-lJzJ0TwoY8Go8-60" value="UE 10" style="rounded=0;whiteSpace=wrap;html=1;fillColor=#dae8fc;strokeColor=#6c8ebf;" vertex="1" parent="1">
          <mxGeometry x="1115" y="840" width="110" height="30" as="geometry" />
        </mxCell>
        <mxCell id="dHAf7h-lJzJ0TwoY8Go8-114" style="edgeStyle=orthogonalEdgeStyle;rounded=0;orthogonalLoop=1;jettySize=auto;html=1;entryX=0;entryY=0.25;entryDx=0;entryDy=0;" edge="1" parent="1" source="dHAf7h-lJzJ0TwoY8Go8-61" target="dHAf7h-lJzJ0TwoY8Go8-100">
          <mxGeometry relative="1" as="geometry">
            <Array as="points">
              <mxPoint x="-350" y="1440" />
              <mxPoint x="58" y="1440" />
              <mxPoint x="58" y="1445" />
            </Array>
          </mxGeometry>
        </mxCell>
        <mxCell id="dHAf7h-lJzJ0TwoY8Go8-61" value="D10" style="ellipse;whiteSpace=wrap;html=1;fillColor=#ffe6cc;strokeColor=#d79b00;" vertex="1" parent="1">
          <mxGeometry x="-410" y="1000" width="120" height="80" as="geometry" />
        </mxCell>
        <mxCell id="dHAf7h-lJzJ0TwoY8Go8-115" style="edgeStyle=orthogonalEdgeStyle;rounded=0;orthogonalLoop=1;jettySize=auto;html=1;" edge="1" parent="1" source="dHAf7h-lJzJ0TwoY8Go8-62" target="dHAf7h-lJzJ0TwoY8Go8-100">
          <mxGeometry relative="1" as="geometry">
            <Array as="points">
              <mxPoint x="-180" y="1440" />
            </Array>
          </mxGeometry>
        </mxCell>
        <mxCell id="dHAf7h-lJzJ0TwoY8Go8-62" value="D11" style="ellipse;whiteSpace=wrap;html=1;fillColor=#ffe6cc;strokeColor=#d79b00;" vertex="1" parent="1">
          <mxGeometry x="-240" y="1000" width="120" height="80" as="geometry" />
        </mxCell>
        <mxCell id="dHAf7h-lJzJ0TwoY8Go8-116" style="edgeStyle=orthogonalEdgeStyle;rounded=0;orthogonalLoop=1;jettySize=auto;html=1;" edge="1" parent="1" source="dHAf7h-lJzJ0TwoY8Go8-65" target="dHAf7h-lJzJ0TwoY8Go8-100">
          <mxGeometry relative="1" as="geometry">
            <Array as="points">
              <mxPoint x="-110" y="1440" />
            </Array>
          </mxGeometry>
        </mxCell>
        <mxCell id="dHAf7h-lJzJ0TwoY8Go8-65" value="D10" style="ellipse;whiteSpace=wrap;html=1;fillColor=#ffe6cc;strokeColor=#d79b00;" vertex="1" parent="1">
          <mxGeometry x="-170" y="1120" width="120" height="80" as="geometry" />
        </mxCell>
        <mxCell id="dHAf7h-lJzJ0TwoY8Go8-117" style="edgeStyle=orthogonalEdgeStyle;rounded=0;orthogonalLoop=1;jettySize=auto;html=1;" edge="1" parent="1" source="dHAf7h-lJzJ0TwoY8Go8-66" target="dHAf7h-lJzJ0TwoY8Go8-100">
          <mxGeometry relative="1" as="geometry">
            <Array as="points">
              <mxPoint x="80" y="1440" />
            </Array>
          </mxGeometry>
        </mxCell>
        <mxCell id="dHAf7h-lJzJ0TwoY8Go8-66" value="D11" style="ellipse;whiteSpace=wrap;html=1;fillColor=#ffe6cc;strokeColor=#d79b00;" vertex="1" parent="1">
          <mxGeometry x="20" y="1180" width="120" height="80" as="geometry" />
        </mxCell>
        <mxCell id="dHAf7h-lJzJ0TwoY8Go8-119" style="edgeStyle=orthogonalEdgeStyle;rounded=0;orthogonalLoop=1;jettySize=auto;html=1;" edge="1" parent="1" source="dHAf7h-lJzJ0TwoY8Go8-69" target="dHAf7h-lJzJ0TwoY8Go8-100">
          <mxGeometry relative="1" as="geometry">
            <Array as="points">
              <mxPoint x="300" y="1440" />
            </Array>
          </mxGeometry>
        </mxCell>
        <mxCell id="dHAf7h-lJzJ0TwoY8Go8-69" value="D10" style="ellipse;whiteSpace=wrap;html=1;fillColor=#ffe6cc;strokeColor=#d79b00;" vertex="1" parent="1">
          <mxGeometry x="240" y="1020" width="120" height="80" as="geometry" />
        </mxCell>
        <mxCell id="dHAf7h-lJzJ0TwoY8Go8-118" style="edgeStyle=orthogonalEdgeStyle;rounded=0;orthogonalLoop=1;jettySize=auto;html=1;" edge="1" parent="1" source="dHAf7h-lJzJ0TwoY8Go8-70" target="dHAf7h-lJzJ0TwoY8Go8-100">
          <mxGeometry relative="1" as="geometry">
            <Array as="points">
              <mxPoint x="160" y="1440" />
            </Array>
          </mxGeometry>
        </mxCell>
        <mxCell id="dHAf7h-lJzJ0TwoY8Go8-70" value="D11" style="ellipse;whiteSpace=wrap;html=1;fillColor=#ffe6cc;strokeColor=#d79b00;" vertex="1" parent="1">
          <mxGeometry x="100" y="1020" width="120" height="80" as="geometry" />
        </mxCell>
        <mxCell id="dHAf7h-lJzJ0TwoY8Go8-120" style="edgeStyle=orthogonalEdgeStyle;rounded=0;orthogonalLoop=1;jettySize=auto;html=1;" edge="1" parent="1" source="dHAf7h-lJzJ0TwoY8Go8-73" target="dHAf7h-lJzJ0TwoY8Go8-100">
          <mxGeometry relative="1" as="geometry" />
        </mxCell>
        <mxCell id="dHAf7h-lJzJ0TwoY8Go8-73" value="D10" style="ellipse;whiteSpace=wrap;html=1;fillColor=#ffe6cc;strokeColor=#d79b00;" vertex="1" parent="1">
          <mxGeometry x="320" y="1130" width="120" height="80" as="geometry" />
        </mxCell>
        <mxCell id="dHAf7h-lJzJ0TwoY8Go8-121" style="edgeStyle=orthogonalEdgeStyle;rounded=0;orthogonalLoop=1;jettySize=auto;html=1;" edge="1" parent="1" source="dHAf7h-lJzJ0TwoY8Go8-74" target="dHAf7h-lJzJ0TwoY8Go8-100">
          <mxGeometry relative="1" as="geometry" />
        </mxCell>
        <mxCell id="dHAf7h-lJzJ0TwoY8Go8-74" value="D11" style="ellipse;whiteSpace=wrap;html=1;fillColor=#ffe6cc;strokeColor=#d79b00;" vertex="1" parent="1">
          <mxGeometry x="460" y="1130" width="120" height="80" as="geometry" />
        </mxCell>
        <mxCell id="dHAf7h-lJzJ0TwoY8Go8-122" style="edgeStyle=orthogonalEdgeStyle;rounded=0;orthogonalLoop=1;jettySize=auto;html=1;entryX=1;entryY=0.5;entryDx=0;entryDy=0;" edge="1" parent="1" source="dHAf7h-lJzJ0TwoY8Go8-77" target="dHAf7h-lJzJ0TwoY8Go8-100">
          <mxGeometry relative="1" as="geometry" />
        </mxCell>
        <mxCell id="dHAf7h-lJzJ0TwoY8Go8-77" value="D10" style="ellipse;whiteSpace=wrap;html=1;fillColor=#ffe6cc;strokeColor=#d79b00;" vertex="1" parent="1">
          <mxGeometry x="525" y="920" width="120" height="80" as="geometry" />
        </mxCell>
        <mxCell id="dHAf7h-lJzJ0TwoY8Go8-123" style="edgeStyle=orthogonalEdgeStyle;rounded=0;orthogonalLoop=1;jettySize=auto;html=1;entryX=1;entryY=0.5;entryDx=0;entryDy=0;" edge="1" parent="1" source="dHAf7h-lJzJ0TwoY8Go8-78" target="dHAf7h-lJzJ0TwoY8Go8-100">
          <mxGeometry relative="1" as="geometry">
            <Array as="points">
              <mxPoint x="750" y="1460" />
            </Array>
          </mxGeometry>
        </mxCell>
        <mxCell id="dHAf7h-lJzJ0TwoY8Go8-78" value="D11" style="ellipse;whiteSpace=wrap;html=1;fillColor=#ffe6cc;strokeColor=#d79b00;" vertex="1" parent="1">
          <mxGeometry x="695" y="920" width="120" height="80" as="geometry" />
        </mxCell>
        <mxCell id="dHAf7h-lJzJ0TwoY8Go8-124" style="edgeStyle=orthogonalEdgeStyle;rounded=0;orthogonalLoop=1;jettySize=auto;html=1;" edge="1" parent="1" source="dHAf7h-lJzJ0TwoY8Go8-81" target="dHAf7h-lJzJ0TwoY8Go8-100">
          <mxGeometry relative="1" as="geometry">
            <Array as="points">
              <mxPoint x="855" y="1460" />
            </Array>
          </mxGeometry>
        </mxCell>
        <mxCell id="dHAf7h-lJzJ0TwoY8Go8-81" value="D10" style="ellipse;whiteSpace=wrap;html=1;fillColor=#ffe6cc;strokeColor=#d79b00;" vertex="1" parent="1">
          <mxGeometry x="795" y="1080" width="120" height="80" as="geometry" />
        </mxCell>
        <mxCell id="dHAf7h-lJzJ0TwoY8Go8-125" style="edgeStyle=orthogonalEdgeStyle;rounded=0;orthogonalLoop=1;jettySize=auto;html=1;" edge="1" parent="1" source="dHAf7h-lJzJ0TwoY8Go8-82" target="dHAf7h-lJzJ0TwoY8Go8-100">
          <mxGeometry relative="1" as="geometry">
            <Array as="points">
              <mxPoint x="1025" y="1460" />
            </Array>
          </mxGeometry>
        </mxCell>
        <mxCell id="dHAf7h-lJzJ0TwoY8Go8-82" value="D11" style="ellipse;whiteSpace=wrap;html=1;fillColor=#ffe6cc;strokeColor=#d79b00;" vertex="1" parent="1">
          <mxGeometry x="965" y="1080" width="120" height="80" as="geometry" />
        </mxCell>
        <mxCell id="dHAf7h-lJzJ0TwoY8Go8-126" style="edgeStyle=orthogonalEdgeStyle;rounded=0;orthogonalLoop=1;jettySize=auto;html=1;" edge="1" parent="1" source="dHAf7h-lJzJ0TwoY8Go8-85" target="dHAf7h-lJzJ0TwoY8Go8-100">
          <mxGeometry relative="1" as="geometry">
            <Array as="points">
              <mxPoint x="1100" y="1460" />
            </Array>
          </mxGeometry>
        </mxCell>
        <mxCell id="dHAf7h-lJzJ0TwoY8Go8-85" value="D10" style="ellipse;whiteSpace=wrap;html=1;fillColor=#ffe6cc;strokeColor=#d79b00;" vertex="1" parent="1">
          <mxGeometry x="1040" y="940" width="120" height="80" as="geometry" />
        </mxCell>
        <mxCell id="dHAf7h-lJzJ0TwoY8Go8-127" style="edgeStyle=orthogonalEdgeStyle;rounded=0;orthogonalLoop=1;jettySize=auto;html=1;" edge="1" parent="1" source="dHAf7h-lJzJ0TwoY8Go8-86" target="dHAf7h-lJzJ0TwoY8Go8-100">
          <mxGeometry relative="1" as="geometry">
            <Array as="points">
              <mxPoint x="1270" y="1460" />
            </Array>
          </mxGeometry>
        </mxCell>
        <mxCell id="dHAf7h-lJzJ0TwoY8Go8-86" value="D11" style="ellipse;whiteSpace=wrap;html=1;fillColor=#ffe6cc;strokeColor=#d79b00;" vertex="1" parent="1">
          <mxGeometry x="1210" y="940" width="120" height="80" as="geometry" />
        </mxCell>
        <mxCell id="dHAf7h-lJzJ0TwoY8Go8-89" value="&lt;span style=&quot;font-size: 18px;&quot;&gt;Leyenda:&lt;/span&gt;" style="text;html=1;align=center;verticalAlign=middle;whiteSpace=wrap;rounded=0;" vertex="1" parent="1">
          <mxGeometry x="1520" y="110" width="120" height="50" as="geometry" />
        </mxCell>
        <mxCell id="dHAf7h-lJzJ0TwoY8Go8-91" value="D1:Unidad de dialogo para el inicio de la aplicaciÃ³n." style="rounded=0;whiteSpace=wrap;html=1;fillColor=#ffe6cc;strokeColor=#d79b00;" vertex="1" parent="1">
          <mxGeometry x="1440" y="190" width="120" height="60" as="geometry" />
        </mxCell>
        <mxCell id="dHAf7h-lJzJ0TwoY8Go8-92" value="D2:Unidad de dialogo para la selecciÃ³n de temas." style="rounded=0;whiteSpace=wrap;html=1;fillColor=#ffe6cc;strokeColor=#d79b00;" vertex="1" parent="1">
          <mxGeometry x="1440" y="260" width="120" height="60" as="geometry" />
        </mxCell>
        <mxCell id="dHAf7h-lJzJ0TwoY8Go8-93" value="D3:Unidad de dialogo para tema Fundamentos." style="rounded=0;whiteSpace=wrap;html=1;fillColor=#ffe6cc;strokeColor=#d79b00;" vertex="1" parent="1">
          <mxGeometry x="1440" y="330" width="120" height="60" as="geometry" />
        </mxCell>
        <mxCell id="dHAf7h-lJzJ0TwoY8Go8-94" value="D4:Unidad de dialogo para tema RepresentaciÃ³n algorÃ­tmica." style="rounded=0;whiteSpace=wrap;html=1;fillColor=#ffe6cc;strokeColor=#d79b00;" vertex="1" parent="1">
          <mxGeometry x="1440" y="410" width="120" height="60" as="geometry" />
        </mxCell>
        <mxCell id="dHAf7h-lJzJ0TwoY8Go8-95" value="D5:Unidad de dialogo para tema Acciones Elementales." style="rounded=0;whiteSpace=wrap;html=1;fillColor=#ffe6cc;strokeColor=#d79b00;" vertex="1" parent="1">
          <mxGeometry x="1440" y="485" width="120" height="60" as="geometry" />
        </mxCell>
        <mxCell id="dHAf7h-lJzJ0TwoY8Go8-96" value="D6:Unidad de dialogo para tema Estructura de Control Condicional." style="rounded=0;whiteSpace=wrap;html=1;fillColor=#ffe6cc;strokeColor=#d79b00;" vertex="1" parent="1">
          <mxGeometry x="1440" y="560" width="120" height="60" as="geometry" />
        </mxCell>
        <mxCell id="dHAf7h-lJzJ0TwoY8Go8-97" value="D7:Unidad de dialogo para tema Estructura de Control Iterativo." style="rounded=0;whiteSpace=wrap;html=1;fillColor=#ffe6cc;strokeColor=#d79b00;" vertex="1" parent="1">
          <mxGeometry x="1440" y="640" width="120" height="60" as="geometry" />
        </mxCell>
        <mxCell id="dHAf7h-lJzJ0TwoY8Go8-98" value="D8:Unidad de dialogo para tema ProgramaciÃ³n Modular." style="rounded=0;whiteSpace=wrap;html=1;fillColor=#ffe6cc;strokeColor=#d79b00;" vertex="1" parent="1">
          <mxGeometry x="1440" y="710" width="120" height="60" as="geometry" />
        </mxCell>
        <mxCell id="dHAf7h-lJzJ0TwoY8Go8-99" value="D9:Unidad de dialogo para tema Tipo de Datos Estructurado." style="rounded=0;whiteSpace=wrap;html=1;fillColor=#ffe6cc;strokeColor=#d79b00;" vertex="1" parent="1">
          <mxGeometry x="1440" y="780" width="120" height="60" as="geometry" />
        </mxCell>
        <mxCell id="dHAf7h-lJzJ0TwoY8Go8-100" value="FIN" style="rounded=0;whiteSpace=wrap;html=1;" vertex="1" parent="1">
          <mxGeometry x="405" y="1430" width="120" height="60" as="geometry" />
        </mxCell>
        <mxCell id="dHAf7h-lJzJ0TwoY8Go8-101" value="D10:Unidad de dialogo para el desarrollo del contenido X." style="rounded=0;whiteSpace=wrap;html=1;fillColor=#ffe6cc;strokeColor=#d79b00;" vertex="1" parent="1">
          <mxGeometry x="1440" y="860" width="120" height="60" as="geometry" />
        </mxCell>
        <mxCell id="dHAf7h-lJzJ0TwoY8Go8-102" value="D10:Unidad de dialogo para el prueba del contenido X." style="rounded=0;whiteSpace=wrap;html=1;fillColor=#ffe6cc;strokeColor=#d79b00;" vertex="1" parent="1">
          <mxGeometry x="1440" y="940" width="120" height="60" as="geometry" />
        </mxCell>
        <mxCell id="dHAf7h-lJzJ0TwoY8Go8-103" value="EU 1: BotÃ³n para desplegar los temas" style="rounded=0;whiteSpace=wrap;html=1;fillColor=#dae8fc;strokeColor=#6c8ebf;" vertex="1" parent="1">
          <mxGeometry x="1620" y="190" width="120" height="60" as="geometry" />
        </mxCell>
        <mxCell id="dHAf7h-lJzJ0TwoY8Go8-105" value="EU 2:Boton para navegar al dialogo del tema Fundamentos." style="rounded=0;whiteSpace=wrap;html=1;fillColor=#dae8fc;strokeColor=#6c8ebf;" vertex="1" parent="1">
          <mxGeometry x="1620" y="260" width="120" height="60" as="geometry" />
        </mxCell>
        <mxCell id="dHAf7h-lJzJ0TwoY8Go8-106" value="EU 3:Boton para navegar al&amp;nbsp; tema RepresentaciÃ³n algorÃ­tmica." style="rounded=0;whiteSpace=wrap;html=1;fillColor=#dae8fc;strokeColor=#6c8ebf;" vertex="1" parent="1">
          <mxGeometry x="1620" y="340" width="120" height="60" as="geometry" />
        </mxCell>
        <mxCell id="dHAf7h-lJzJ0TwoY8Go8-107" value="EU 4: Boton para navegar al tema Acciones Elementales." style="rounded=0;whiteSpace=wrap;html=1;fillColor=#dae8fc;strokeColor=#6c8ebf;" vertex="1" parent="1">
          <mxGeometry x="1620" y="420" width="120" height="60" as="geometry" />
        </mxCell>
        <mxCell id="dHAf7h-lJzJ0TwoY8Go8-108" value="UE 5 :Boton para navegar al&amp;nbsp; tema Estructura de Control Condicional." style="rounded=0;whiteSpace=wrap;html=1;fillColor=#dae8fc;strokeColor=#6c8ebf;" vertex="1" parent="1">
          <mxGeometry x="1620" y="500" width="120" height="60" as="geometry" />
        </mxCell>
        <mxCell id="dHAf7h-lJzJ0TwoY8Go8-109" value="UE 6:Boton para navegar al&amp;nbsp; tema Estructura de Control Iterativo." style="rounded=0;whiteSpace=wrap;html=1;fillColor=#dae8fc;strokeColor=#6c8ebf;" vertex="1" parent="1">
          <mxGeometry x="1620" y="585" width="120" height="60" as="geometry" />
        </mxCell>
        <mxCell id="dHAf7h-lJzJ0TwoY8Go8-110" value="EU 7:Boton para navegar al tema ProgramaciÃ³n Modular." style="rounded=0;whiteSpace=wrap;html=1;fillColor=#dae8fc;strokeColor=#6c8ebf;" vertex="1" parent="1">
          <mxGeometry x="1620" y="670" width="120" height="60" as="geometry" />
        </mxCell>
        <mxCell id="dHAf7h-lJzJ0TwoY8Go8-111" value="EU 8: Boton para navegar al&amp;nbsp; tema Tipo de Datos Estructurado." style="rounded=0;whiteSpace=wrap;html=1;fillColor=#dae8fc;strokeColor=#6c8ebf;" vertex="1" parent="1">
          <mxGeometry x="1620" y="750" width="120" height="60" as="geometry" />
        </mxCell>
        <mxCell id="dHAf7h-lJzJ0TwoY8Go8-112" value="EU 9:Boton para navegar al desarrollo del contenido X." style="rounded=0;whiteSpace=wrap;html=1;fillColor=#dae8fc;strokeColor=#6c8ebf;" vertex="1" parent="1">
          <mxGeometry x="1620" y="835" width="120" height="60" as="geometry" />
        </mxCell>
        <mxCell id="dHAf7h-lJzJ0TwoY8Go8-113" value="EU 10: Boton para navegar a la prueba del contenido X." style="rounded=0;whiteSpace=wrap;html=1;fillColor=#dae8fc;strokeColor=#6c8ebf;" vertex="1" parent="1">
          <mxGeometry x="1620" y="930" width="120" height="60" as="geometry" />
        </mxCell>
      </root>
    </mxGraphModel>
  </diagram>
</mxfile>
